<?xml version="1.0" encoding="UTF-8"?>
<svg width="204px" height="64px" viewBox="0 0 204 64" version="1.1" xmlns="http://www.w3.org/2000/svg" xmlns:xlink="http://www.w3.org/1999/xlink">
    <title>72D829FD-837D-4F06-AF22-0FF08B862F45</title>
    <g id="website" stroke="none" stroke-width="1" fill="none" fill-rule="evenodd">
        <g id="PropertyHit-landing-page-DESKTOP" transform="translate(-28.000000, -12.000000)">
            <g id="POWERD" transform="translate(28.000000, 12.000000)">
                <rect id="Rectangle" stroke="#191919" x="0" y="0" width="204" height="64" rx="4"></rect>
                <g id="Group-10" transform="translate(11.000000, 12.000000)" fill-rule="nonzero">
                    <g id="Group-5">
                        <g id="Group-2" transform="translate(0.000000, 5.000000)">
                            <g id="Group-4" transform="translate(122.335135, 0.000000)">
                                <polygon id="Path" fill="#39B54A" points="53.9224985 35.6666667 0 35.6666667 7.26275075 18.0666667 0 0 53.9224985 0 61.1852492 18.2666667"></polygon>
                                <polygon id="Path" fill="#48C153" points="7.26275075 18.0666667 0 -1.24344979e-13 53.9224985 -1.24344979e-13 61.1852492 18.2666667"></polygon>
                                <g id="Group" transform="translate(12.538523, 10.000000)" fill="#FFFFFF">
                                    <polygon id="Path" points="0.548132132 0.6 3.63137538 0.6 3.63137538 7.26666667 11.6478078 7.26666667 11.6478078 0.6 14.7310511 0.6 14.7310511 16.2666667 11.6478078 16.2666667 11.6478078 9.93333333 3.63137538 9.93333333 3.63137538 16.2666667 0.548132132 16.2666667"></polygon>
                                    <polygon id="Path" points="19.1846246 0.6 22.2678679 0.6 22.2678679 16.2666667 19.1846246 16.2666667"></polygon>
                                    <polygon id="Path" points="24.802979 0.6 37.8896336 0.6 37.8896336 3.26666667 32.8879279 3.26666667 32.8879279 16.2666667 29.8046847 16.2666667 29.8046847 3.2 24.802979 3.2"></polygon>
                                </g>
                            </g>
                            <g id="Group-3" transform="translate(0.000000, 10.702703)" fill="#FFFFFF">
                                <path d="M10.7383063,1.49189189 C11.8257297,2.4 12.3694414,3.63243243 12.3694414,5.25405405 C12.3694414,6.94054054 11.8257297,8.23783784 10.7383063,9.21081081 C9.65088288,10.1189189 8.08771171,10.6378378 6.11675676,10.6378378 L2.17484685,10.6378378 L2.17484685,15.372973 L0,15.372973 L0,0.194594595 L6.18472072,0.194594595 C8.15567568,0.194594595 9.65088288,0.583783784 10.7383063,1.49189189 Z M9.17513514,7.91351351 C9.92273874,7.32972973 10.2625586,6.48648649 10.2625586,5.38378378 C10.2625586,4.28108108 9.92273874,3.5027027 9.17513514,2.91891892 C8.42753153,2.33513514 7.40807207,2.07567568 6.04879279,2.07567568 L2.17484685,2.07567568 L2.17484685,8.75675676 L6.04879279,8.75675676 C7.40807207,8.75675676 8.4954955,8.4972973 9.17513514,7.91351351 Z" id="Shape"></path>
                                <path d="M25.6224144,15.372973 L22.4281081,10.6378378 C22.0882883,10.6378378 21.7484685,10.7027027 21.5445766,10.7027027 L17.4667387,10.7027027 L17.4667387,15.4378378 L15.2918919,15.4378378 L15.2918919,0.194594595 L21.5445766,0.194594595 C23.5834955,0.194594595 25.1466667,0.648648649 26.2340901,1.55675676 C27.3215135,2.46486486 27.8652252,3.6972973 27.8652252,5.38378378 C27.8652252,6.61621622 27.5933694,7.65405405 26.9816937,8.4972973 C26.370018,9.34054054 25.4864865,9.92432432 24.3990631,10.3135135 L28.1370811,15.4378378 L25.6224144,15.4378378 L25.6224144,15.372973 Z M21.5445766,8.75675676 C22.9038559,8.75675676 23.9912793,8.4972973 24.6709189,7.91351351 C25.4185225,7.32972973 25.7583423,6.48648649 25.7583423,5.38378378 C25.7583423,4.28108108 25.4185225,3.5027027 24.6709189,2.91891892 C23.9233153,2.33513514 22.9038559,2.07567568 21.5445766,2.07567568 L17.4667387,2.07567568 L17.4667387,8.75675676 L21.5445766,8.75675676 Z" id="Shape"></path>
                                <path d="M42.9532252,1.03783784 C44.2445405,1.75135135 45.264,2.65945946 46.0116036,3.82702703 C46.7592072,4.99459459 47.099027,6.29189189 47.099027,7.71891892 C47.099027,9.14594595 46.7592072,10.4432432 46.0116036,11.6756757 C45.264,12.8432432 44.2445405,13.8162162 42.9532252,14.5297297 C41.6619099,15.2432432 40.2346667,15.5675676 38.7394595,15.5675676 C37.2442523,15.5675676 35.817009,15.1783784 34.5256937,14.5297297 C33.2343784,13.8162162 32.2149189,12.9081081 31.4673153,11.6756757 C30.7197117,10.5081081 30.3798919,9.14594595 30.3798919,7.71891892 C30.3798919,6.29189189 30.7197117,4.99459459 31.4673153,3.82702703 C32.2149189,2.65945946 33.2343784,1.68648649 34.5256937,1.03783784 C35.817009,0.389189189 37.2442523,0 38.7394595,0 C40.3026306,0.0648648649 41.6619099,0.389189189 42.9532252,1.03783784 Z M35.6810811,2.65945946 C34.7295856,3.17837838 33.981982,3.89189189 33.4382703,4.8 C32.8945586,5.70810811 32.5547387,6.68108108 32.5547387,7.78378378 C32.5547387,8.88648649 32.8265946,9.85945946 33.3703063,10.7675676 C33.914018,11.6756757 34.6616216,12.3891892 35.6131171,12.9081081 C36.5646126,13.427027 37.5840721,13.6864865 38.6714955,13.6864865 C39.7589189,13.6864865 40.7783784,13.427027 41.7298739,12.9081081 C42.6813694,12.3891892 43.428973,11.6756757 43.9726847,10.7675676 C44.5163964,9.85945946 44.7882523,8.88648649 44.7882523,7.78378378 C44.7882523,6.68108108 44.5163964,5.70810811 43.9726847,4.86486486 C43.428973,3.95675676 42.6813694,3.24324324 41.7298739,2.72432432 C40.7783784,2.20540541 39.7589189,1.94594595 38.6714955,1.94594595 C37.5840721,1.94594595 36.6325766,2.14054054 35.6810811,2.65945946 Z" id="Shape"></path>
                                <path d="M61.0316396,1.49189189 C62.1190631,2.4 62.6627748,3.63243243 62.6627748,5.25405405 C62.6627748,6.94054054 62.1190631,8.23783784 61.0316396,9.21081081 C59.9442162,10.1189189 58.381045,10.6378378 56.4100901,10.6378378 L52.4681802,10.6378378 L52.4681802,15.372973 L50.2933333,15.372973 L50.2933333,0.194594595 L56.4780541,0.194594595 C58.449009,0.194594595 59.9442162,0.583783784 61.0316396,1.49189189 Z M59.4684685,7.91351351 C60.2160721,7.32972973 60.5558919,6.48648649 60.5558919,5.38378378 C60.5558919,4.28108108 60.2160721,3.5027027 59.4684685,2.91891892 C58.7208649,2.33513514 57.7014054,2.07567568 56.3421261,2.07567568 L52.4681802,2.07567568 L52.4681802,8.75675676 L56.3421261,8.75675676 C57.7014054,8.75675676 58.7208649,8.4972973 59.4684685,7.91351351 Z" id="Shape"></path>
                                <polygon id="Path" points="65.5852252 0.194594595 76.6633514 0.194594595 76.6633514 2.07567568 67.7600721 2.07567568 67.7600721 6.74594595 75.7118559 6.74594595 75.7118559 8.62702703 67.7600721 8.62702703 67.7600721 13.4918919 76.9352072 13.4918919 76.9352072 15.372973 65.5852252 15.372973 65.5852252 0.194594595"></polygon>
                                <path d="M90.7318919,15.372973 L87.6055495,10.6378378 C87.2657297,10.6378378 86.9259099,10.7027027 86.722018,10.7027027 L82.6441802,10.7027027 L82.6441802,15.4378378 L80.4693333,15.4378378 L80.4693333,0.194594595 L86.722018,0.194594595 C88.7609369,0.194594595 90.3241081,0.648648649 91.4115315,1.55675676 C92.498955,2.46486486 93.0426667,3.6972973 93.0426667,5.38378378 C93.0426667,6.61621622 92.7708108,7.65405405 92.1591351,8.4972973 C91.5474595,9.34054054 90.6639279,9.92432432 89.5765045,10.3135135 L93.3145225,15.4378378 L90.7318919,15.4378378 L90.7318919,15.372973 Z M86.722018,8.75675676 C88.0812973,8.75675676 89.1687207,8.4972973 89.8483604,7.91351351 C90.595964,7.32972973 90.9357838,6.48648649 90.9357838,5.38378378 C90.9357838,4.28108108 90.595964,3.5027027 89.8483604,2.91891892 C89.1007568,2.33513514 88.0812973,2.07567568 86.722018,2.07567568 L82.6441802,2.07567568 L82.6441802,8.75675676 L86.722018,8.75675676 Z" id="Shape"></path>
                                <polygon id="Path" points="94.8776937 0.194594595 107.315099 0.194594595 107.315099 2.14054054 102.149838 2.14054054 102.149838 15.4378378 99.974991 15.4378378 99.974991 2.07567568 94.8776937 2.07567568 94.8776937 0.194594595"></polygon>
                                <polygon id="Path" points="121.859387 0.194594595 115.878559 10.1837838 115.878559 15.372973 113.703712 15.372973 113.703712 10.2486486 107.654919 0.12972973 109.89773 0.12972973 114.791135 7.91351351 119.616577 0.12972973 121.859387 0.12972973"></polygon>
                            </g>
                        </g>
                        <path d="M1.148,9 L1.148,6.288 L3.416,6.288 C4.456,6.288 5.26,6.036 5.828,5.532 C6.396,5.028 6.68,4.316 6.68,3.396 C6.68,2.508 6.396,1.822 5.828,1.338 C5.26,0.854 4.456,0.612 3.416,0.612 L3.416,0.612 L0.32,0.612 L0.32,9 L1.148,9 Z M3.38,5.544 L1.148,5.544 L1.148,1.356 L3.38,1.356 C4.188,1.356 4.808,1.532 5.24,1.884 C5.672,2.236 5.888,2.748 5.888,3.42 C5.888,4.108 5.67,4.634 5.234,4.998 C4.798,5.362 4.18,5.544 3.38,5.544 L3.38,5.544 Z M10.712,9.024 C11.32,9.024 11.864,8.89 12.344,8.622 C12.824,8.354 13.2,7.978 13.472,7.494 C13.744,7.01 13.88,6.46 13.88,5.844 C13.88,5.236 13.744,4.692 13.472,4.212 C13.2,3.732 12.824,3.358 12.344,3.09 C11.864,2.822 11.32,2.688 10.712,2.688 C10.104,2.688 9.56,2.822 9.08,3.09 C8.6,3.358 8.224,3.732 7.952,4.212 C7.68,4.692 7.544,5.236 7.544,5.844 C7.544,6.46 7.68,7.01 7.952,7.494 C8.224,7.978 8.6,8.354 9.08,8.622 C9.56,8.89 10.104,9.024 10.712,9.024 Z M10.712,8.34 C10.256,8.34 9.848,8.236 9.488,8.028 C9.128,7.82 8.848,7.528 8.648,7.152 C8.448,6.776 8.348,6.344 8.348,5.856 C8.348,5.376 8.448,4.948 8.648,4.572 C8.848,4.196 9.128,3.904 9.488,3.696 C9.848,3.488 10.256,3.384 10.712,3.384 C11.168,3.384 11.576,3.488 11.936,3.696 C12.296,3.904 12.576,4.196 12.776,4.572 C12.976,4.948 13.076,5.376 13.076,5.856 C13.076,6.344 12.976,6.776 12.776,7.152 C12.576,7.528 12.296,7.82 11.936,8.028 C11.576,8.236 11.168,8.34 10.712,8.34 Z M17.672,9 L19.592,3.684 L21.512,9 L22.352,9 L24.704,2.712 L23.864,2.712 L21.944,8.196 L20.024,2.712 L19.172,2.712 L17.264,8.196 L15.332,2.712 L14.468,2.712 L16.832,9 L17.672,9 Z M28.328,9.024 C28.84,9.024 29.31,8.934 29.738,8.754 C30.166,8.574 30.532,8.32 30.836,7.992 L30.836,7.992 L30.38,7.536 C30.132,7.8 29.836,8.004 29.492,8.148 C29.148,8.292 28.776,8.364 28.376,8.364 C27.728,8.364 27.184,8.158 26.744,7.746 C26.304,7.334 26.056,6.792 26,6.12 L26,6.12 L31.244,6.12 C31.284,5.072 31.048,4.238 30.536,3.618 C30.024,2.998 29.28,2.688 28.304,2.688 C27.712,2.688 27.18,2.822 26.708,3.09 C26.236,3.358 25.866,3.734 25.598,4.218 C25.33,4.702 25.196,5.248 25.196,5.856 C25.196,6.472 25.33,7.02 25.598,7.5 C25.866,7.98 26.236,8.354 26.708,8.622 C27.18,8.89 27.72,9.024 28.328,9.024 Z M30.524,5.496 L26,5.496 C26.064,4.848 26.308,4.328 26.732,3.936 C27.156,3.544 27.684,3.348 28.316,3.348 C28.956,3.348 29.474,3.542 29.87,3.93 C30.266,4.318 30.484,4.84 30.524,5.496 L30.524,5.496 Z M33.728,9 L33.728,5.64 C33.784,4.96 34.014,4.422 34.418,4.026 C34.822,3.63 35.356,3.436 36.02,3.444 L36.02,3.444 L36.02,2.688 C35.476,2.696 35.01,2.826 34.622,3.078 C34.234,3.33 33.936,3.696 33.728,4.176 L33.728,4.176 L33.728,2.712 L32.924,2.712 L32.924,9 L33.728,9 Z M39.788,9.024 C40.3,9.024 40.77,8.934 41.198,8.754 C41.626,8.574 41.992,8.32 42.296,7.992 L42.296,7.992 L41.84,7.536 C41.592,7.8 41.296,8.004 40.952,8.148 C40.608,8.292 40.236,8.364 39.836,8.364 C39.188,8.364 38.644,8.158 38.204,7.746 C37.764,7.334 37.516,6.792 37.46,6.12 L37.46,6.12 L42.704,6.12 C42.744,5.072 42.508,4.238 41.996,3.618 C41.484,2.998 40.74,2.688 39.764,2.688 C39.172,2.688 38.64,2.822 38.168,3.09 C37.696,3.358 37.326,3.734 37.058,4.218 C36.79,4.702 36.656,5.248 36.656,5.856 C36.656,6.472 36.79,7.02 37.058,7.5 C37.326,7.98 37.696,8.354 38.168,8.622 C38.64,8.89 39.18,9.024 39.788,9.024 Z M41.984,5.496 L37.46,5.496 C37.524,4.848 37.768,4.328 38.192,3.936 C38.616,3.544 39.144,3.348 39.776,3.348 C40.416,3.348 40.934,3.542 41.33,3.93 C41.726,4.318 41.944,4.84 41.984,5.496 L41.984,5.496 Z M46.784,9.048 C47.36,9.048 47.864,8.918 48.296,8.658 C48.728,8.398 49.064,8.032 49.304,7.56 L49.304,7.56 L49.304,9 L50.108,9 L50.108,0.096 L49.304,0.096 L49.304,4.164 C49.064,3.692 48.726,3.324 48.29,3.06 C47.854,2.796 47.348,2.664 46.772,2.664 C46.188,2.664 45.666,2.8 45.206,3.072 C44.746,3.344 44.386,3.72 44.126,4.2 C43.866,4.68 43.736,5.228 43.736,5.844 C43.736,6.46 43.864,7.012 44.12,7.5 C44.376,7.988 44.736,8.368 45.2,8.64 C45.664,8.912 46.192,9.048 46.784,9.048 Z M46.928,8.352 C46.472,8.352 46.062,8.246 45.698,8.034 C45.334,7.822 45.05,7.528 44.846,7.152 C44.642,6.776 44.54,6.348 44.54,5.868 C44.54,5.388 44.644,4.958 44.852,4.578 C45.06,4.198 45.344,3.9 45.704,3.684 C46.064,3.468 46.472,3.36 46.928,3.36 C47.384,3.36 47.792,3.468 48.152,3.684 C48.512,3.9 48.794,4.198 48.998,4.578 C49.202,4.958 49.304,5.388 49.304,5.868 C49.304,6.348 49.202,6.776 48.998,7.152 C48.794,7.528 48.512,7.822 48.152,8.034 C47.792,8.246 47.384,8.352 46.928,8.352 Z M59.516,9 C60.468,9 61.212,8.8 61.748,8.4 C62.284,8 62.552,7.44 62.552,6.72 C62.552,6.144 62.38,5.668 62.036,5.292 C61.692,4.916 61.212,4.688 60.596,4.608 C61.092,4.504 61.478,4.284 61.754,3.948 C62.03,3.612 62.168,3.196 62.168,2.7 C62.168,2.044 61.93,1.53 61.454,1.158 C60.978,0.786 60.32,0.6 59.48,0.6 L59.48,0.6 L55.964,0.6 L55.964,9 L59.516,9 Z M59.444,4.308 L56.792,4.308 L56.792,1.356 L59.444,1.356 C60.036,1.348 60.496,1.472 60.824,1.728 C61.152,1.984 61.316,2.344 61.316,2.808 C61.316,3.288 61.152,3.658 60.824,3.918 C60.496,4.178 60.036,4.308 59.444,4.308 L59.444,4.308 Z M59.444,8.256 L56.792,8.256 L56.792,5.04 L59.444,5.04 C60.156,5.04 60.712,5.18 61.112,5.46 C61.512,5.74 61.712,6.132 61.712,6.636 C61.712,7.148 61.514,7.546 61.118,7.83 C60.722,8.114 60.164,8.256 59.444,8.256 L59.444,8.256 Z M64.472,11.364 C64.88,11.364 65.242,11.24 65.558,10.992 C65.874,10.744 66.128,10.38 66.32,9.9 L66.32,9.9 L69.224,2.712 L68.396,2.712 L66.32,8.112 L64.16,2.712 L63.308,2.712 L65.912,8.964 L65.648,9.612 C65.512,9.932 65.34,10.176 65.132,10.344 C64.924,10.512 64.692,10.596 64.436,10.596 C64.116,10.596 63.816,10.5 63.536,10.308 L63.536,10.308 L63.176,10.932 C63.552,11.22 63.984,11.364 64.472,11.364 Z" id="PoweredBy" fill="#FFFFFF"></path>
                    </g>
                </g>
            </g>
        </g>
    </g>
</svg>